<?xml version="1.0" standalone="no"?>
<!DOCTYPE svg PUBLIC "-//W3C//DTD SVG 20010904//EN"
 "http://www.w3.org/TR/2001/REC-SVG-20010904/DTD/svg10.dtd">
<svg version="1.0" xmlns="http://www.w3.org/2000/svg"
 width="1300.000000pt" height="1300.000000pt" viewBox="0 0 1300.000000 1300.000000"
 preserveAspectRatio="xMidYMid meet">
<metadata>
Created by potrace 1.14, written by Peter Selinger 2001-2017
</metadata>
<g transform="translate(0.000000,1300.000000) scale(0.100000,-0.100000)"
fill="#000000" stroke="none">
<path d="M1735 12985 c-320 -47 -590 -150 -848 -322 -447 -299 -756 -770 -856
-1303 -6 -30 -14 -71 -18 -90 -4 -19 -8 -2150 -10 -4735 -2 -4535 -1 -4704 17
-4816 137 -861 774 -1520 1620 -1678 30 -6 71 -14 90 -18 58 -12 9337 -16
9460 -3 531 53 998 303 1341 715 213 256 361 567 423 890 8 44 19 96 23 115 4
19 8 2148 9 4730 2 4752 2 4738 -30 4910 -110 583 -503 1112 -1031 1390 -184
97 -362 157 -605 207 -80 16 -373 17 -4790 19 -3864 2 -4721 0 -4795 -11z"/>
</g>
</svg>
